<svg width="74" height="74" viewBox="0 0 74 74" fill="none" xmlns="http://www.w3.org/2000/svg">
<g filter="url(#filter0_d_35651_6022)">
<rect x="17" y="13" width="40" height="40" rx="10" fill="white"/>
</g>
<path d="M32 24.6666L29.5 28V39.6666C29.5 40.1087 29.6756 40.5326 29.9882 40.8451C30.3007 41.1577 30.7246 41.3333 31.1667 41.3333H42.8333C43.2754 41.3333 43.6993 41.1577 44.0118 40.8451C44.3244 40.5326 44.5 40.1087 44.5 39.6666V28L42 24.6666H32Z" stroke="#3E6618" stroke-width="1.66667" stroke-linecap="round" stroke-linejoin="round"/>
<path d="M29.5 28H44.5" stroke="#3E6618" stroke-width="1.66667" stroke-linecap="round" stroke-linejoin="round"/>
<path d="M40.3332 31.3334C40.3332 32.2174 39.982 33.0653 39.3569 33.6904C38.7317 34.3155 37.8839 34.6667 36.9998 34.6667C36.1158 34.6667 35.2679 34.3155 34.6428 33.6904C34.0177 33.0653 33.6665 32.2174 33.6665 31.3334" stroke="#3E6618" stroke-width="1.66667" stroke-linecap="round" stroke-linejoin="round"/>
<defs>
<filter id="filter0_d_35651_6022" x="0.9" y="0.9" width="72.2" height="72.2" filterUnits="userSpaceOnUse" color-interpolation-filters="sRGB">
<feFlood flood-opacity="0" result="BackgroundImageFix"/>
<feColorMatrix in="SourceAlpha" type="matrix" values="0 0 0 0 0 0 0 0 0 0 0 0 0 0 0 0 0 0 127 0" result="hardAlpha"/>
<feOffset dy="4"/>
<feGaussianBlur stdDeviation="8.05"/>
<feComposite in2="hardAlpha" operator="out"/>
<feColorMatrix type="matrix" values="0 0 0 0 0 0 0 0 0 0 0 0 0 0 0 0 0 0 0.15 0"/>
<feBlend mode="normal" in2="BackgroundImageFix" result="effect1_dropShadow_35651_6022"/>
<feBlend mode="normal" in="SourceGraphic" in2="effect1_dropShadow_35651_6022" result="shape"/>
</filter>
</defs>
</svg>
