<svg width="26" height="26" viewBox="0 0 26 26" fill="none" xmlns="http://www.w3.org/2000/svg">
<circle cx="12.9999" cy="12.9999" r="12.9999" fill="#EDEEEB"/>
<path d="M9.5 7.16675L7.75 9.50008V17.6667C7.75 17.9762 7.87292 18.2729 8.09171 18.4917C8.3105 18.7105 8.60725 18.8334 8.91667 18.8334H17.0833C17.3928 18.8334 17.6895 18.7105 17.9083 18.4917C18.1271 18.2729 18.25 17.9762 18.25 17.6667V9.50008L16.5 7.16675H9.5Z" stroke="black" stroke-width="1.16667" stroke-linecap="round" stroke-linejoin="round"/>
<path d="M7.75 9.5H18.25" stroke="black" stroke-width="1.16667" stroke-linecap="round" stroke-linejoin="round"/>
<path d="M15.3332 11.8333C15.3332 12.4521 15.0873 13.0456 14.6498 13.4832C14.2122 13.9208 13.6187 14.1666 12.9998 14.1666C12.381 14.1666 11.7875 13.9208 11.3499 13.4832C10.9123 13.0456 10.6665 12.4521 10.6665 11.8333" stroke="black" stroke-width="1.16667" stroke-linecap="round" stroke-linejoin="round"/>
</svg>
