<svg width="16" height="16" viewBox="0 0 16 16" fill="none" xmlns="http://www.w3.org/2000/svg">
<path d="M2.4145 0.889218L3.32215 0.391717C3.81928 0.118773 4.39881 0.035134 4.9526 0.156408C5.50638 0.277682 5.9966 0.595583 6.33177 1.05079L7.43572 2.55029C7.72393 2.94185 7.88168 3.41367 7.88683 3.89956C7.89198 4.38545 7.74427 4.86102 7.46444 5.25956L6.46837 6.67733C6.43928 6.71875 6.426 6.76914 6.43095 6.8194C6.46454 7.15565 6.82465 7.74742 7.53061 8.52657C8.04253 9.09283 8.47938 9.47444 8.82196 9.66684C9.06186 9.80158 9.1805 9.81603 9.22504 9.79268L10.7865 8.92716C11.2129 8.69084 11.7027 8.59322 12.1871 8.64798C12.6715 8.70275 13.1263 8.90716 13.4877 9.23255L14.8651 10.4747C15.2843 10.8523 15.5515 11.3687 15.617 11.9283C15.6825 12.4878 15.5419 13.0523 15.2213 13.5171L14.6327 14.3695C14.3207 14.8213 13.8966 15.1852 13.4018 15.4257C12.907 15.6661 12.3584 15.775 11.8093 15.7416C9.38511 15.5941 6.92292 14.1097 4.40797 11.3328C1.89049 8.55219 0.660199 5.95683 0.766787 3.53527C0.790504 2.99071 0.954646 2.46115 1.24339 1.99766C1.53214 1.53417 1.93492 1.15254 2.4145 0.889218ZM3.02821 2.00121C2.74035 2.15899 2.49801 2.38788 2.32455 2.66584C2.15109 2.9438 2.05236 3.26145 2.03788 3.58817C1.94975 5.6243 3.03982 7.92521 5.3548 10.4818C7.66724 13.0346 9.85012 14.3503 11.8899 14.4752C12.2193 14.4952 12.5485 14.4298 12.8453 14.2854C13.1421 14.1411 13.3965 13.9227 13.5836 13.6515L14.1714 12.7993C14.3172 12.5881 14.3812 12.3314 14.3515 12.077C14.3218 11.8226 14.2003 11.5877 14.0097 11.416L12.6325 10.1747C12.4681 10.0266 12.2613 9.93359 12.0409 9.90867C11.8206 9.88374 11.5978 9.9282 11.4038 10.0358L9.83857 10.9039C8.9279 11.3994 7.88002 10.8092 6.58378 9.37759C5.70979 8.41375 5.23032 7.62516 5.16356 6.94651C5.12827 6.59418 5.22161 6.24207 5.4245 5.95133L6.42057 4.53356C6.54768 4.35234 6.61471 4.13613 6.61225 3.91526C6.6098 3.6944 6.53798 3.47997 6.40688 3.30205L5.30375 1.80237C5.15139 1.59546 4.92855 1.45097 4.67681 1.39586C4.42508 1.34075 4.16165 1.3788 3.93568 1.50289L3.02821 2.00121Z" fill="#A4A4A4"/>
</svg>
