<svg width="42" height="14" viewBox="0 0 42 14" fill="none" xmlns="http://www.w3.org/2000/svg">
<path d="M8.18786 3.17098V4.4569H9.89678V6.01354H8.08634C7.90586 7.08514 7.4603 7.86346 6.74966 8.3485C6.0503 8.83354 4.98998 9.07606 3.5687 9.07606V9.97282C3.5687 10.503 3.67586 10.9203 3.89018 11.2249C4.11578 11.5295 4.49366 11.6817 5.02382 11.6817C5.53142 11.6817 5.89802 11.5407 6.12362 11.2587C6.34922 10.9655 6.46202 10.5425 6.46202 9.98974H8.66162C8.63906 11.129 8.31758 12.0032 7.69718 12.6123C7.07678 13.2102 6.1913 13.5091 5.04074 13.5091C3.84506 13.5091 2.93138 13.1876 2.2997 12.5447C1.66802 11.9017 1.35218 10.9655 1.35218 9.73594V7.48558C2.55914 7.48558 3.45026 7.45738 4.02554 7.40098C4.60082 7.3333 5.02946 7.19794 5.31146 6.9949C5.59346 6.79186 5.77958 6.46474 5.86982 6.01354H0.810738V4.4569H5.95442V3.17098H0.810738V1.51282H9.89678V3.17098H8.18786ZM11.3744 4.25386C11.4308 3.12586 11.8256 2.2573 12.5588 1.64818C13.3032 1.02778 14.279 0.717584 15.4859 0.717584C16.3094 0.717584 17.0144 0.864224 17.6009 1.1575C18.1875 1.4395 18.6274 1.82866 18.9207 2.32498C19.2252 2.81002 19.3775 3.36274 19.3775 3.98314C19.3775 4.69378 19.1914 5.29726 18.8192 5.79358C18.4582 6.27862 18.0239 6.60574 17.5163 6.77494V6.84262C18.1706 7.04566 18.6782 7.40662 19.0391 7.9255C19.4114 8.44438 19.5975 9.1099 19.5975 9.92206C19.5975 10.5989 19.4396 11.2023 19.1237 11.7325C18.8192 12.2627 18.3623 12.68 17.7532 12.9846C17.1554 13.2779 16.4334 13.4245 15.5874 13.4245C14.3128 13.4245 13.275 13.103 12.4742 12.4601C11.6733 11.8171 11.2503 10.8696 11.2052 9.6175H13.5063C13.5288 10.1702 13.715 10.6158 14.0646 10.9542C14.4256 11.2813 14.9163 11.4449 15.5367 11.4449C16.112 11.4449 16.5519 11.2869 16.8564 10.9711C17.1723 10.644 17.3302 10.2266 17.3302 9.71902C17.3302 9.04222 17.1159 8.55718 16.6872 8.2639C16.2586 7.97062 15.5931 7.82398 14.6907 7.82398H14.2V5.87818H14.6907C16.2924 5.87818 17.0933 5.34238 17.0933 4.27078C17.0933 3.78574 16.9467 3.40786 16.6534 3.13714C16.3714 2.86642 15.9597 2.73106 15.4182 2.73106C14.8881 2.73106 14.4764 2.8777 14.1831 3.17098C13.9011 3.45298 13.7375 3.81394 13.6924 4.25386H11.3744ZM29.7602 3.05254H24.2781V5.94586C24.515 5.65258 24.8534 5.4157 25.2933 5.23522C25.7332 5.04346 26.2014 4.94758 26.6977 4.94758C27.6001 4.94758 28.3389 5.14498 28.9142 5.53978C29.4895 5.93458 29.9068 6.44218 30.1663 7.06258C30.4257 7.6717 30.5554 8.32594 30.5554 9.0253C30.5554 10.3225 30.1832 11.3659 29.4387 12.1555C28.7055 12.9451 27.6565 13.3399 26.2916 13.3399C25.0057 13.3399 23.9792 13.0184 23.2122 12.3755C22.4451 11.7325 22.0108 10.8921 21.9093 9.85438H24.2104C24.312 10.3056 24.5376 10.6665 24.8872 10.9373C25.2482 11.208 25.705 11.3433 26.2578 11.3433C26.9233 11.3433 27.4252 11.1347 27.7636 10.7173C28.102 10.2999 28.2712 9.74722 28.2712 9.05914C28.2712 8.35978 28.0964 7.82962 27.7467 7.46866C27.4083 7.09642 26.9064 6.9103 26.2408 6.9103C25.7671 6.9103 25.3723 7.02874 25.0564 7.26562C24.7406 7.5025 24.515 7.81834 24.3796 8.21314H22.1124V0.971385H29.7602V3.05254ZM32.3583 7.01182C32.3583 5.06038 32.708 3.53194 33.4074 2.4265C34.118 1.32106 35.2911 0.768344 36.9267 0.768344C38.5623 0.768344 39.7298 1.32106 40.4292 2.4265C41.1398 3.53194 41.4951 5.06038 41.4951 7.01182C41.4951 8.97454 41.1398 10.5143 40.4292 11.631C39.7298 12.7477 38.5623 13.3061 36.9267 13.3061C35.2911 13.3061 34.118 12.7477 33.4074 11.631C32.708 10.5143 32.3583 8.97454 32.3583 7.01182ZM39.1602 7.01182C39.1602 6.1771 39.1038 5.47774 38.991 4.91374C38.8895 4.33846 38.6751 3.87034 38.348 3.50938C38.0322 3.14842 37.5584 2.96794 36.9267 2.96794C36.2951 2.96794 35.8157 3.14842 35.4885 3.50938C35.1727 3.87034 34.9584 4.33846 34.8456 4.91374C34.7441 5.47774 34.6933 6.1771 34.6933 7.01182C34.6933 7.8691 34.7441 8.59102 34.8456 9.17758C34.9471 9.75286 35.1614 10.221 35.4885 10.5819C35.8157 10.9316 36.2951 11.1065 36.9267 11.1065C37.5584 11.1065 38.0378 10.9316 38.3649 10.5819C38.6921 10.221 38.9064 9.75286 39.0079 9.17758C39.1094 8.59102 39.1602 7.8691 39.1602 7.01182Z" fill="#3E6618"/>
</svg>
